<svg xmlns="http://www.w3.org/2000/svg" width="369.349" height="241.381" viewBox="0 0 369.349 241.381">
  <g id="Grupo_12" data-name="Grupo 12" transform="translate(-236.414 -178.393)">
    <g id="Grupo_1" data-name="Grupo 1">
      <path id="Trazado_1" data-name="Trazado 1" d="M349.542,391.04l3.809.4v10.743H340.6V391.435l3.814-.4v-2.081H329.887v2.081l3.8.4v25.377l-3.8.4v2.085h14.527v-2.085l-3.814-.4V404.845h12.751v11.968l-3.809.4v2.085h14.484v-2.085l-3.808-.4V391.435l3.808-.4v-2.081H349.542Z" fill="#141414"/>
      <path id="Trazado_2" data-name="Trazado 2" d="M388.992,388.308c-4.768,0-8.613,1.507-11.428,4.478a17.047,17.047,0,0,0,0,22.5c2.823,2.977,6.668,4.486,11.428,4.486s8.6-1.508,11.43-4.486a17.038,17.038,0,0,0,0-22.5C397.6,389.815,393.758,388.308,388.992,388.308Zm.068,29.023c-5.41,0-8.039-4.349-8.039-13.294,0-4.321.634-7.68,1.882-9.979,1.2-2.227,3.2-3.307,6.11-3.307s4.892,1.078,6.066,3.3c1.224,2.3,1.844,5.661,1.844,9.984C396.923,412.982,394.351,417.331,389.06,417.331Z" fill="#141414"/>
      <path id="Trazado_3" data-name="Trazado 3" d="M414.427,388.964v7.688H416.6l2.059-5.032,6.141-.072V416.81l-4.072.4v2.088h15.055v-2.088l-4.077-.4V391.548l6.143.072,2.058,5.032h2.227v-7.688l-13.862-.089Z" fill="#141414"/>
      <path id="Trazado_4" data-name="Trazado 4" d="M472.617,416.674l-10.01.127V404.845H470.2l1.307,3.322h2.184v-9.226h-2.13l-1.353,3.237h-7.6V391.5l8.667.121,1.706,4.639h2.329v-7.3H451.889v2.081l3.809.4v25.377l-3.809.4v2.085h24.732l.611-7.611h-2.341Z" fill="#141414"/>
      <path id="Trazado_5" data-name="Trazado 5" d="M509.952,411.683l-2.276,4.991-10,.127V391.433l3.81-.438v-2.035H486.95v2.035l3.813.438v25.38l-3.812.4v2.085h24.731l.607-7.611Z" fill="#141414"/>
    </g>
    <g id="Grupo_4" data-name="Grupo 4">
      <g id="Grupo_2" data-name="Grupo 2">
        <path id="Trazado_6" data-name="Trazado 6" d="M451.043,216.333a6.012,6.012,0,0,1-.915,1.259l-24.589,24.589a5.545,5.545,0,0,1-7.834,0l-24.592-24.589a5.376,5.376,0,0,1-.925-1.292l-41.032-.016a10.666,10.666,0,0,0,2.931,5.511l22.722,22.716c-.081-.081-.131-.17-.2-.25h29.288l13.191,13.191a3.418,3.418,0,0,0,4.843,0l13.194-13.191h28.5l22.471-22.466a10.771,10.771,0,0,0,2.927-5.447Z" fill="#cba349"/>
      </g>
      <g id="Grupo_3" data-name="Grupo 3">
        <path id="Trazado_7" data-name="Trazado 7" d="M410.907,210.258h1.331l7.125-7.13a2.977,2.977,0,0,1,4.212,0l7.027,7.014,12.689-12.7L426.2,180.356a6.682,6.682,0,0,0-9.461,0l-17.865,17.871Z" fill="#cba349"/>
      </g>
    </g>
    <g id="Grupo_11" data-name="Grupo 11">
      <g id="Grupo_5" data-name="Grupo 5">
        <path id="Trazado_8" data-name="Trazado 8" d="M269.438,256.825a11.9,11.9,0,0,1-3.524,8.609,12.256,12.256,0,0,1-21.063-8.609,12.181,12.181,0,0,1,3.6-8.845,11.978,11.978,0,0,1,17.375.08A12.3,12.3,0,0,1,269.438,256.825Z" fill="#141414"/>
      </g>
      <g id="Grupo_6" data-name="Grupo 6">
        <path id="Trazado_9" data-name="Trazado 9" d="M416.634,367.227q-17.541,0-28.439-11.478t-10.9-30.324q0-18.85,11.4-30.322t28.929-11.477q17.535,0,26.227,7.458t8.687,20.736a49.76,49.76,0,0,1-.662,7.87H399.915v5.735q0,18.363,4.588,27.783t13.849,9.43a36.824,36.824,0,0,0,16.881-3.858,28.656,28.656,0,0,0,11.889-10.9c2.4.761,3.6,1.913,3.6,3.441q0,4.1-7.7,9.5a34.96,34.96,0,0,1-10.734,4.509A60.266,60.266,0,0,1,416.634,367.227Zm15.4-59.018q0-19.977-13.933-19.988-14.589,0-17.7,25.566h31.311Q432.037,310.514,432.039,308.209Z" fill="#141414"/>
      </g>
      <g id="Grupo_7" data-name="Grupo 7">
        <path id="Trazado_10" data-name="Trazado 10" d="M500.336,289.7q7.458-6.23,13.606-6.228t8.277,3.027c1.418,2.024,2.133,3.689,2.133,5q0,6.729-4.92,9.674-3.285-2.623-9.755-2.624a23.97,23.97,0,0,0-12.865,4.018q-6.386,4.013-6.392,8.765v49.335l14.752.984v3.77H459.443v-3.77l10.817-.817V290.835l-13.28-.652v-3.767l33.44-1.807-.985,20.162h.659A31.747,31.747,0,0,1,500.336,289.7Z" fill="#141414"/>
      </g>
      <g id="Grupo_8" data-name="Grupo 8">
        <path id="Trazado_11" data-name="Trazado 11" d="M268.289,360.663V284.449l-31.876,1.936v3.823l10.9.628v69.828l-10.658.984v3.77h42.292v-3.77Z" fill="#141414"/>
      </g>
      <g id="Grupo_9" data-name="Grupo 9">
        <path id="Trazado_12" data-name="Trazado 12" d="M366.967,360.5l-36.388-42.457,30.157-25.237,12.13-3.115v-4.26H340.737v4.26l10.655,3.115L316.48,322.97V244.755L284.7,247.282v4.592l10.8.753V360.663l-10.654.984v3.77h40.65v-3.77L316.48,360.5V327.555l28.845,33.108-9.177.984v3.77h41.8v-3.77Z" fill="#141414"/>
      </g>
      <g id="Grupo_10" data-name="Grupo 10">
        <path id="Trazado_13" data-name="Trazado 13" d="M605.763,361.439l-2.253-.167-8.435-.609V311.328q0-14.09-7.056-20.9t-26.389-6.8a47.118,47.118,0,0,0-18.357,4.1,18.524,18.524,0,0,0-8.035,6.065,14.909,14.909,0,0,0-3.106,9.253q0,5.172,2.78,7.794a9.445,9.445,0,0,0,6.724,2.622A13.176,13.176,0,0,0,549.178,311a48.688,48.688,0,0,1-.658-8.358,16.621,16.621,0,0,1,2.461-8.684,12.348,12.348,0,0,1,11.307-6.231q7.539,0,10.327,5.412t2.787,15.4v14.1q-21.969,0-34.263,6.309t-12.453,18.767q0,9.34,6.143,14.509a22.094,22.094,0,0,0,14.671,5.165q18.851,0,26.556-13.934l1.475,13.77,21.372-1.348,6.86-.432ZM575.4,341.163q-.33,8.691-5.574,14.178t-10.493,5.489a8.836,8.836,0,0,1-2.456-.326q-7.547-1.8-7.535-12.787a23.642,23.642,0,0,1,2.125-10.651q4.914-10,23.933-10Z" fill="#141414"/>
      </g>
    </g>
  </g>
</svg>
